<svg xmlns="http://www.w3.org/2000/svg" xmlns:xlink="http://www.w3.org/1999/xlink" width="1080" zoomAndPan="magnify" viewBox="0 0 810 809.999993" height="1080" preserveAspectRatio="xMidYMid meet" version="1.0"><rect x="-81" width="972" fill="#ffffff" y="-80.999999" height="971.999992" fill-opacity="1"/><rect x="-81" width="972" fill="#ffffff" y="-80.999999" height="971.999992" fill-opacity="1"/><rect x="-81" width="972" fill="#000000" y="-80.999999" height="971.999992" fill-opacity="1"/><path fill="#ffffff" d="M 783 162 L 293.164062 162 C 292.4375 159.128906 291.589844 156.296875 290.625 153.496094 C 289.660156 150.695312 288.582031 147.941406 287.386719 145.230469 C 286.195312 142.519531 284.894531 139.863281 283.480469 137.261719 C 282.070312 134.660156 280.554688 132.117188 278.929688 129.640625 C 277.308594 127.164062 275.589844 124.757812 273.765625 122.421875 C 271.945312 120.085938 270.03125 117.832031 268.027344 115.652344 C 266.019531 113.476562 263.925781 111.386719 261.746094 109.382812 C 259.566406 107.378906 257.304688 105.46875 254.96875 103.648438 C 252.628906 101.832031 250.222656 100.113281 247.742188 98.496094 C 245.261719 96.878906 242.71875 95.367188 240.117188 93.957031 C 237.511719 92.550781 234.851562 91.25 232.140625 90.0625 C 229.429688 88.875 226.671875 87.800781 223.871094 86.839844 C 221.070312 85.878906 218.234375 85.035156 215.363281 84.308594 C 212.492188 83.582031 209.597656 82.976562 206.675781 82.488281 C 203.753906 82 200.820312 81.636719 197.867188 81.390625 C 194.917969 81.148438 191.960938 81.023438 189 81.023438 C 186.039062 81.023438 183.082031 81.148438 180.132812 81.390625 C 177.179688 81.636719 174.246094 82 171.324219 82.488281 C 168.402344 82.976562 165.507812 83.582031 162.636719 84.308594 C 159.765625 85.035156 156.929688 85.878906 154.128906 86.839844 C 151.328125 87.800781 148.570312 88.875 145.859375 90.0625 C 143.148438 91.25 140.488281 92.550781 137.882812 93.957031 C 135.28125 95.367188 132.738281 96.878906 130.257812 98.496094 C 127.777344 100.113281 125.367188 101.832031 123.03125 103.648438 C 120.695312 105.46875 118.433594 107.378906 116.253906 109.382812 C 114.074219 111.386719 111.980469 113.476562 109.972656 115.652344 C 107.96875 117.832031 106.054688 120.085938 104.234375 122.421875 C 102.410156 124.757812 100.691406 127.164062 99.070312 129.640625 C 97.445312 132.117188 95.929688 134.660156 94.519531 137.261719 C 93.105469 139.863281 91.804688 142.519531 90.613281 145.230469 C 89.417969 147.941406 88.339844 150.695312 87.375 153.496094 C 86.410156 156.296875 85.5625 159.128906 84.835938 162 L 27 162 C 26.117188 162 25.234375 162.042969 24.355469 162.128906 C 23.472656 162.214844 22.601562 162.347656 21.734375 162.519531 C 20.867188 162.691406 20.007812 162.90625 19.164062 163.164062 C 18.316406 163.417969 17.484375 163.71875 16.667969 164.054688 C 15.851562 164.394531 15.050781 164.769531 14.273438 165.1875 C 13.492188 165.605469 12.734375 166.058594 12 166.550781 C 11.265625 167.042969 10.554688 167.566406 9.871094 168.128906 C 9.1875 168.691406 8.535156 169.28125 7.90625 169.90625 C 7.28125 170.535156 6.691406 171.1875 6.128906 171.871094 C 5.566406 172.554688 5.042969 173.265625 4.550781 174 C 4.058594 174.734375 3.605469 175.492188 3.1875 176.273438 C 2.769531 177.050781 2.394531 177.851562 2.054688 178.667969 C 1.71875 179.484375 1.417969 180.316406 1.164062 181.164062 C 0.90625 182.007812 0.691406 182.867188 0.519531 183.734375 C 0.347656 184.601562 0.214844 185.472656 0.128906 186.355469 C 0.0429688 187.234375 0 188.117188 0 189 C 0 189.882812 0.0429688 190.765625 0.128906 191.648438 C 0.214844 192.527344 0.347656 193.398438 0.519531 194.265625 C 0.691406 195.132812 0.90625 195.992188 1.164062 196.835938 C 1.417969 197.683594 1.71875 198.515625 2.054688 199.332031 C 2.394531 200.148438 2.769531 200.949219 3.1875 201.726562 C 3.605469 202.507812 4.058594 203.265625 4.550781 204 C 5.042969 204.734375 5.566406 205.445312 6.128906 206.128906 C 6.691406 206.8125 7.28125 207.464844 7.90625 208.09375 C 8.535156 208.71875 9.1875 209.308594 9.871094 209.871094 C 10.554688 210.433594 11.265625 210.957031 12 211.449219 C 12.734375 211.941406 13.492188 212.394531 14.273438 212.8125 C 15.050781 213.230469 15.851562 213.605469 16.667969 213.945312 C 17.484375 214.28125 18.316406 214.582031 19.164062 214.835938 C 20.007812 215.09375 20.867188 215.308594 21.734375 215.480469 C 22.601562 215.652344 23.472656 215.785156 24.355469 215.871094 C 25.234375 215.957031 26.117188 216 27 216 L 84.835938 216 C 85.5625 218.871094 86.410156 221.703125 87.375 224.503906 C 88.339844 227.304688 89.417969 230.058594 90.613281 232.769531 C 91.804688 235.480469 93.105469 238.136719 94.519531 240.738281 C 95.929688 243.339844 97.445312 245.882812 99.070312 248.359375 C 100.691406 250.835938 102.410156 253.242188 104.234375 255.578125 C 106.054688 257.914062 107.96875 260.167969 109.972656 262.347656 C 111.980469 264.523438 114.074219 266.613281 116.253906 268.617188 C 118.433594 270.621094 120.695312 272.53125 123.03125 274.351562 C 125.367188 276.167969 127.777344 277.886719 130.257812 279.503906 C 132.738281 281.121094 135.28125 282.632812 137.882812 284.042969 C 140.488281 285.449219 143.148438 286.75 145.859375 287.9375 C 148.570312 289.125 151.328125 290.199219 154.128906 291.160156 C 156.929688 292.121094 159.765625 292.964844 162.636719 293.691406 C 165.507812 294.417969 168.402344 295.023438 171.324219 295.511719 C 174.246094 296 177.179688 296.363281 180.132812 296.609375 C 183.082031 296.851562 186.039062 296.976562 189 296.976562 C 191.960938 296.976562 194.917969 296.851562 197.867188 296.609375 C 200.820312 296.363281 203.753906 296 206.675781 295.511719 C 209.597656 295.023438 212.492188 294.417969 215.363281 293.691406 C 218.234375 292.964844 221.070312 292.121094 223.871094 291.160156 C 226.671875 290.199219 229.425781 289.125 232.140625 287.9375 C 234.851562 286.75 237.511719 285.449219 240.117188 284.042969 C 242.71875 282.632812 245.261719 281.121094 247.742188 279.503906 C 250.222656 277.886719 252.628906 276.167969 254.96875 274.351562 C 257.304688 272.53125 259.566406 270.621094 261.746094 268.617188 C 263.925781 266.613281 266.019531 264.523438 268.027344 262.347656 C 270.03125 260.167969 271.945312 257.914062 273.765625 255.578125 C 275.589844 253.242188 277.308594 250.835938 278.929688 248.359375 C 280.554688 245.882812 282.070312 243.339844 283.480469 240.738281 C 284.894531 238.136719 286.195312 235.480469 287.386719 232.769531 C 288.582031 230.058594 289.660156 227.304688 290.625 224.503906 C 291.589844 221.703125 292.4375 218.871094 293.164062 216 L 783 216 C 783.882812 216 784.765625 215.957031 785.644531 215.871094 C 786.527344 215.785156 787.398438 215.652344 788.265625 215.480469 C 789.132812 215.308594 789.992188 215.09375 790.835938 214.835938 C 791.683594 214.582031 792.515625 214.28125 793.332031 213.945312 C 794.148438 213.605469 794.949219 213.230469 795.726562 212.8125 C 796.507812 212.394531 797.265625 211.941406 798 211.449219 C 798.734375 210.957031 799.445312 210.433594 800.128906 209.871094 C 800.8125 209.308594 801.464844 208.71875 802.09375 208.09375 C 802.71875 207.464844 803.308594 206.8125 803.871094 206.128906 C 804.433594 205.445312 804.957031 204.734375 805.449219 204 C 805.941406 203.265625 806.394531 202.507812 806.8125 201.726562 C 807.230469 200.949219 807.605469 200.148438 807.945312 199.332031 C 808.28125 198.515625 808.582031 197.683594 808.835938 196.835938 C 809.09375 195.992188 809.308594 195.132812 809.480469 194.265625 C 809.652344 193.398438 809.785156 192.527344 809.871094 191.648438 C 809.957031 190.765625 810 189.882812 810 189 C 810 188.117188 809.957031 187.234375 809.871094 186.355469 C 809.785156 185.472656 809.652344 184.601562 809.480469 183.734375 C 809.308594 182.867188 809.09375 182.007812 808.835938 181.164062 C 808.582031 180.316406 808.28125 179.484375 807.945312 178.667969 C 807.605469 177.851562 807.230469 177.050781 806.8125 176.273438 C 806.394531 175.492188 805.941406 174.734375 805.449219 174 C 804.957031 173.265625 804.433594 172.554688 803.871094 171.871094 C 803.308594 171.1875 802.71875 170.535156 802.09375 169.90625 C 801.464844 169.28125 800.8125 168.691406 800.128906 168.128906 C 799.445312 167.566406 798.734375 167.042969 798 166.550781 C 797.265625 166.058594 796.507812 165.605469 795.726562 165.1875 C 794.949219 164.769531 794.148438 164.394531 793.332031 164.054688 C 792.515625 163.71875 791.683594 163.417969 790.835938 163.164062 C 789.992188 162.90625 789.132812 162.691406 788.265625 162.519531 C 787.398438 162.347656 786.527344 162.214844 785.644531 162.128906 C 784.765625 162.042969 783.882812 162 783 162 Z M 189 243 C 187.230469 243 185.46875 242.914062 183.707031 242.738281 C 181.945312 242.566406 180.199219 242.308594 178.464844 241.960938 C 176.730469 241.617188 175.015625 241.1875 173.324219 240.675781 C 171.632812 240.160156 169.96875 239.566406 168.335938 238.890625 C 166.699219 238.210938 165.105469 237.457031 163.542969 236.625 C 161.984375 235.789062 160.46875 234.882812 159 233.898438 C 157.527344 232.917969 156.109375 231.863281 154.742188 230.742188 C 153.375 229.621094 152.066406 228.433594 150.816406 227.183594 C 149.566406 225.933594 148.378906 224.625 147.257812 223.257812 C 146.136719 221.890625 145.082031 220.472656 144.101562 219 C 143.117188 217.53125 142.210938 216.015625 141.375 214.457031 C 140.542969 212.894531 139.789062 211.300781 139.109375 209.664062 C 138.433594 208.03125 137.839844 206.367188 137.324219 204.675781 C 136.8125 202.984375 136.382812 201.269531 136.039062 199.535156 C 135.691406 197.800781 135.433594 196.054688 135.261719 194.292969 C 135.085938 192.53125 135 190.769531 135 189 C 135 187.230469 135.085938 185.46875 135.261719 183.707031 C 135.433594 181.945312 135.691406 180.199219 136.039062 178.464844 C 136.382812 176.730469 136.8125 175.015625 137.324219 173.324219 C 137.839844 171.632812 138.433594 169.96875 139.109375 168.335938 C 139.789062 166.699219 140.542969 165.105469 141.375 163.542969 C 142.210938 161.984375 143.117188 160.46875 144.101562 159 C 145.082031 157.527344 146.136719 156.109375 147.257812 154.742188 C 148.378906 153.375 149.566406 152.066406 150.816406 150.816406 C 152.066406 149.566406 153.375 148.378906 154.742188 147.257812 C 156.109375 146.136719 157.527344 145.082031 159 144.101562 C 160.46875 143.117188 161.984375 142.210938 163.542969 141.375 C 165.105469 140.542969 166.699219 139.789062 168.335938 139.109375 C 169.96875 138.433594 171.632812 137.839844 173.324219 137.324219 C 175.015625 136.8125 176.730469 136.382812 178.464844 136.039062 C 180.199219 135.691406 181.945312 135.433594 183.707031 135.261719 C 185.46875 135.085938 187.230469 135 189 135 C 190.769531 135 192.53125 135.085938 194.292969 135.261719 C 196.054688 135.433594 197.800781 135.691406 199.535156 136.039062 C 201.269531 136.382812 202.984375 136.8125 204.675781 137.324219 C 206.367188 137.839844 208.03125 138.433594 209.664062 139.109375 C 211.300781 139.789062 212.894531 140.542969 214.457031 141.375 C 216.015625 142.210938 217.53125 143.117188 219 144.101562 C 220.472656 145.082031 221.890625 146.136719 223.257812 147.257812 C 224.625 148.378906 225.933594 149.566406 227.183594 150.816406 C 228.433594 152.066406 229.621094 153.375 230.742188 154.742188 C 231.863281 156.109375 232.917969 157.527344 233.898438 159 C 234.882812 160.46875 235.789062 161.984375 236.625 163.542969 C 237.457031 165.105469 238.210938 166.699219 238.890625 168.335938 C 239.566406 169.96875 240.160156 171.632812 240.675781 173.324219 C 241.1875 175.015625 241.617188 176.730469 241.960938 178.464844 C 242.308594 180.199219 242.566406 181.945312 242.738281 183.707031 C 242.914062 185.46875 243 187.230469 243 189 C 243 190.769531 242.914062 192.53125 242.738281 194.292969 C 242.566406 196.054688 242.308594 197.800781 241.960938 199.535156 C 241.617188 201.269531 241.1875 202.984375 240.675781 204.675781 C 240.160156 206.367188 239.566406 208.03125 238.890625 209.664062 C 238.210938 211.300781 237.457031 212.894531 236.625 214.457031 C 235.789062 216.015625 234.882812 217.53125 233.898438 219 C 232.917969 220.472656 231.863281 221.890625 230.742188 223.257812 C 229.621094 224.625 228.433594 225.933594 227.183594 227.183594 C 225.933594 228.433594 224.625 229.621094 223.257812 230.742188 C 221.890625 231.863281 220.472656 232.917969 219 233.898438 C 217.53125 234.882812 216.015625 235.789062 214.457031 236.625 C 212.894531 237.457031 211.300781 238.210938 209.664062 238.890625 C 208.03125 239.566406 206.367188 240.160156 204.675781 240.675781 C 202.984375 241.1875 201.269531 241.617188 199.535156 241.960938 C 197.800781 242.308594 196.054688 242.566406 194.292969 242.738281 C 192.53125 242.914062 190.769531 243 189 243 Z M 189 243 " fill-opacity="1" fill-rule="nonzero"/><path fill="#ffffff" d="M 783 594 L 428.164062 594 C 427.4375 591.128906 426.589844 588.296875 425.625 585.496094 C 424.660156 582.695312 423.582031 579.941406 422.386719 577.230469 C 421.195312 574.519531 419.894531 571.863281 418.480469 569.261719 C 417.070312 566.660156 415.554688 564.117188 413.929688 561.640625 C 412.308594 559.164062 410.589844 556.757812 408.765625 554.421875 C 406.945312 552.085938 405.03125 549.832031 403.027344 547.652344 C 401.019531 545.476562 398.925781 543.386719 396.746094 541.382812 C 394.566406 539.378906 392.304688 537.46875 389.96875 535.648438 C 387.628906 533.832031 385.222656 532.113281 382.742188 530.496094 C 380.261719 528.878906 377.71875 527.363281 375.117188 525.957031 C 372.511719 524.550781 369.851562 523.25 367.140625 522.0625 C 364.425781 520.875 361.671875 519.800781 358.871094 518.839844 C 356.070312 517.878906 353.234375 517.035156 350.363281 516.308594 C 347.492188 515.582031 344.597656 514.976562 341.675781 514.488281 C 338.753906 514 335.820312 513.636719 332.867188 513.390625 C 329.917969 513.148438 326.960938 513.023438 324 513.023438 C 321.039062 513.023438 318.082031 513.148438 315.132812 513.390625 C 312.179688 513.636719 309.246094 514 306.324219 514.488281 C 303.402344 514.976562 300.507812 515.582031 297.636719 516.308594 C 294.765625 517.035156 291.929688 517.878906 289.128906 518.839844 C 286.328125 519.800781 283.570312 520.875 280.859375 522.0625 C 278.148438 523.25 275.488281 524.550781 272.882812 525.957031 C 270.28125 527.363281 267.738281 528.878906 265.257812 530.496094 C 262.777344 532.113281 260.367188 533.832031 258.03125 535.648438 C 255.695312 537.46875 253.433594 539.378906 251.253906 541.382812 C 249.074219 543.386719 246.980469 545.476562 244.972656 547.652344 C 242.96875 549.832031 241.054688 552.085938 239.234375 554.421875 C 237.410156 556.757812 235.691406 559.164062 234.070312 561.640625 C 232.445312 564.117188 230.929688 566.660156 229.519531 569.261719 C 228.105469 571.863281 226.804688 574.519531 225.613281 577.230469 C 224.417969 579.941406 223.339844 582.695312 222.375 585.496094 C 221.410156 588.296875 220.5625 591.128906 219.835938 594 L 27 594 C 26.117188 594 25.234375 594.042969 24.355469 594.128906 C 23.472656 594.214844 22.601562 594.347656 21.734375 594.519531 C 20.867188 594.691406 20.007812 594.90625 19.164062 595.164062 C 18.316406 595.417969 17.484375 595.714844 16.667969 596.054688 C 15.851562 596.394531 15.050781 596.769531 14.273438 597.1875 C 13.492188 597.605469 12.734375 598.058594 12 598.550781 C 11.265625 599.042969 10.554688 599.566406 9.871094 600.128906 C 9.1875 600.691406 8.535156 601.28125 7.90625 601.90625 C 7.28125 602.535156 6.691406 603.1875 6.128906 603.871094 C 5.566406 604.554688 5.042969 605.265625 4.550781 606 C 4.058594 606.734375 3.605469 607.492188 3.1875 608.273438 C 2.769531 609.050781 2.394531 609.851562 2.054688 610.667969 C 1.71875 611.484375 1.417969 612.316406 1.164062 613.164062 C 0.90625 614.007812 0.691406 614.867188 0.519531 615.734375 C 0.347656 616.601562 0.214844 617.472656 0.128906 618.355469 C 0.0429688 619.234375 0 620.117188 0 621 C 0 621.882812 0.0429688 622.765625 0.128906 623.644531 C 0.214844 624.527344 0.347656 625.398438 0.519531 626.265625 C 0.691406 627.132812 0.90625 627.992188 1.164062 628.835938 C 1.417969 629.683594 1.71875 630.515625 2.054688 631.332031 C 2.394531 632.148438 2.769531 632.949219 3.1875 633.726562 C 3.605469 634.507812 4.058594 635.265625 4.550781 636 C 5.042969 636.734375 5.566406 637.445312 6.128906 638.128906 C 6.691406 638.8125 7.28125 639.464844 7.90625 640.09375 C 8.535156 640.71875 9.1875 641.308594 9.871094 641.871094 C 10.554688 642.433594 11.265625 642.957031 12 643.449219 C 12.734375 643.941406 13.492188 644.394531 14.273438 644.8125 C 15.050781 645.230469 15.851562 645.605469 16.667969 645.945312 C 17.484375 646.28125 18.316406 646.582031 19.164062 646.835938 C 20.007812 647.09375 20.867188 647.308594 21.734375 647.480469 C 22.601562 647.652344 23.472656 647.785156 24.355469 647.871094 C 25.234375 647.957031 26.117188 648 27 648 L 219.835938 648 C 220.5625 650.871094 221.410156 653.703125 222.375 656.503906 C 223.339844 659.304688 224.417969 662.058594 225.613281 664.769531 C 226.804688 667.480469 228.105469 670.136719 229.519531 672.738281 C 230.929688 675.339844 232.445312 677.882812 234.070312 680.359375 C 235.691406 682.835938 237.410156 685.242188 239.234375 687.578125 C 241.054688 689.914062 242.96875 692.167969 244.972656 694.347656 C 246.980469 696.523438 249.074219 698.613281 251.253906 700.617188 C 253.433594 702.621094 255.695312 704.53125 258.03125 706.351562 C 260.367188 708.167969 262.777344 709.886719 265.257812 711.503906 C 267.738281 713.121094 270.28125 714.632812 272.882812 716.042969 C 275.488281 717.449219 278.148438 718.75 280.859375 719.9375 C 283.570312 721.125 286.328125 722.199219 289.128906 723.160156 C 291.929688 724.121094 294.765625 724.964844 297.636719 725.691406 C 300.507812 726.417969 303.402344 727.023438 306.324219 727.511719 C 309.246094 728 312.179688 728.363281 315.132812 728.609375 C 318.082031 728.851562 321.039062 728.976562 324 728.976562 C 326.960938 728.976562 329.917969 728.851562 332.867188 728.609375 C 335.820312 728.363281 338.753906 728 341.675781 727.511719 C 344.597656 727.023438 347.492188 726.417969 350.363281 725.691406 C 353.234375 724.964844 356.070312 724.121094 358.871094 723.160156 C 361.671875 722.199219 364.425781 721.125 367.140625 719.9375 C 369.851562 718.75 372.511719 717.449219 375.117188 716.042969 C 377.71875 714.632812 380.261719 713.121094 382.742188 711.503906 C 385.222656 709.886719 387.628906 708.167969 389.96875 706.351562 C 392.304688 704.53125 394.566406 702.621094 396.746094 700.617188 C 398.925781 698.613281 401.019531 696.523438 403.027344 694.347656 C 405.03125 692.167969 406.945312 689.914062 408.765625 687.578125 C 410.589844 685.242188 412.308594 682.835938 413.929688 680.359375 C 415.554688 677.882812 417.070312 675.339844 418.480469 672.738281 C 419.894531 670.136719 421.195312 667.480469 422.386719 664.769531 C 423.582031 662.058594 424.660156 659.304688 425.625 656.503906 C 426.589844 653.703125 427.4375 650.871094 428.164062 648 L 783 648 C 783.882812 648 784.765625 647.957031 785.644531 647.871094 C 786.527344 647.785156 787.398438 647.652344 788.265625 647.480469 C 789.132812 647.308594 789.992188 647.09375 790.835938 646.835938 C 791.683594 646.582031 792.515625 646.28125 793.332031 645.945312 C 794.148438 645.605469 794.949219 645.230469 795.726562 644.8125 C 796.507812 644.394531 797.265625 643.941406 798 643.449219 C 798.734375 642.957031 799.445312 642.433594 800.128906 641.871094 C 800.8125 641.308594 801.464844 640.71875 802.09375 640.09375 C 802.71875 639.464844 803.308594 638.8125 803.871094 638.128906 C 804.433594 637.445312 804.957031 636.734375 805.449219 636 C 805.941406 635.265625 806.394531 634.507812 806.8125 633.726562 C 807.230469 632.949219 807.605469 632.148438 807.945312 631.332031 C 808.28125 630.515625 808.582031 629.683594 808.835938 628.835938 C 809.09375 627.992188 809.308594 627.132812 809.480469 626.265625 C 809.652344 625.398438 809.785156 624.527344 809.871094 623.644531 C 809.957031 622.765625 810 621.882812 810 621 C 810 620.117188 809.957031 619.234375 809.871094 618.355469 C 809.785156 617.472656 809.652344 616.601562 809.480469 615.734375 C 809.308594 614.867188 809.09375 614.007812 808.835938 613.164062 C 808.582031 612.316406 808.28125 611.484375 807.945312 610.667969 C 807.605469 609.851562 807.230469 609.050781 806.8125 608.273438 C 806.394531 607.492188 805.941406 606.734375 805.449219 606 C 804.957031 605.265625 804.433594 604.554688 803.871094 603.871094 C 803.308594 603.1875 802.71875 602.535156 802.09375 601.90625 C 801.464844 601.28125 800.8125 600.691406 800.128906 600.128906 C 799.445312 599.566406 798.734375 599.042969 798 598.550781 C 797.265625 598.058594 796.507812 597.605469 795.726562 597.1875 C 794.949219 596.769531 794.148438 596.394531 793.332031 596.054688 C 792.515625 595.714844 791.683594 595.417969 790.835938 595.164062 C 789.992188 594.90625 789.132812 594.691406 788.265625 594.519531 C 787.398438 594.347656 786.527344 594.214844 785.644531 594.128906 C 784.765625 594.042969 783.882812 594 783 594 Z M 324 675 C 322.230469 675 320.46875 674.914062 318.707031 674.738281 C 316.945312 674.566406 315.199219 674.308594 313.464844 673.960938 C 311.730469 673.617188 310.015625 673.1875 308.324219 672.675781 C 306.632812 672.160156 304.96875 671.566406 303.335938 670.890625 C 301.699219 670.210938 300.105469 669.457031 298.542969 668.625 C 296.984375 667.789062 295.46875 666.882812 294 665.898438 C 292.527344 664.917969 291.109375 663.863281 289.742188 662.742188 C 288.375 661.621094 287.066406 660.433594 285.816406 659.183594 C 284.566406 657.933594 283.378906 656.625 282.257812 655.257812 C 281.136719 653.890625 280.082031 652.472656 279.101562 651 C 278.117188 649.53125 277.210938 648.015625 276.375 646.457031 C 275.542969 644.894531 274.789062 643.296875 274.109375 641.664062 C 273.433594 640.03125 272.839844 638.367188 272.324219 636.675781 C 271.8125 634.984375 271.382812 633.269531 271.039062 631.535156 C 270.691406 629.800781 270.433594 628.054688 270.261719 626.292969 C 270.085938 624.53125 270 622.769531 270 621 C 270 619.230469 270.085938 617.46875 270.261719 615.707031 C 270.433594 613.945312 270.691406 612.199219 271.039062 610.464844 C 271.382812 608.730469 271.8125 607.015625 272.324219 605.324219 C 272.839844 603.632812 273.433594 601.96875 274.109375 600.335938 C 274.789062 598.699219 275.542969 597.105469 276.375 595.542969 C 277.210938 593.984375 278.117188 592.46875 279.101562 591 C 280.082031 589.527344 281.136719 588.109375 282.257812 586.742188 C 283.378906 585.375 284.566406 584.066406 285.816406 582.816406 C 287.066406 581.566406 288.375 580.378906 289.742188 579.257812 C 291.109375 578.136719 292.527344 577.082031 294 576.101562 C 295.46875 575.117188 296.984375 574.210938 298.542969 573.375 C 300.105469 572.542969 301.699219 571.789062 303.335938 571.109375 C 304.96875 570.433594 306.632812 569.839844 308.324219 569.324219 C 310.015625 568.8125 311.730469 568.382812 313.464844 568.039062 C 315.199219 567.691406 316.945312 567.433594 318.707031 567.261719 C 320.46875 567.085938 322.230469 567 324 567 C 325.769531 567 327.53125 567.085938 329.292969 567.261719 C 331.054688 567.433594 332.800781 567.691406 334.535156 568.039062 C 336.269531 568.382812 337.984375 568.8125 339.675781 569.324219 C 341.367188 569.839844 343.03125 570.433594 344.664062 571.109375 C 346.296875 571.789062 347.894531 572.542969 349.457031 573.375 C 351.015625 574.210938 352.53125 575.117188 354 576.101562 C 355.472656 577.082031 356.890625 578.136719 358.257812 579.257812 C 359.625 580.378906 360.933594 581.566406 362.183594 582.816406 C 363.433594 584.066406 364.621094 585.375 365.742188 586.742188 C 366.863281 588.109375 367.917969 589.527344 368.898438 591 C 369.882812 592.46875 370.789062 593.984375 371.625 595.542969 C 372.457031 597.105469 373.210938 598.699219 373.890625 600.335938 C 374.566406 601.96875 375.160156 603.632812 375.675781 605.324219 C 376.1875 607.015625 376.617188 608.730469 376.960938 610.464844 C 377.308594 612.199219 377.566406 613.945312 377.738281 615.707031 C 377.914062 617.46875 378 619.230469 378 621 C 378 622.769531 377.914062 624.53125 377.738281 626.292969 C 377.566406 628.054688 377.308594 629.800781 376.960938 631.535156 C 376.617188 633.269531 376.1875 634.984375 375.675781 636.675781 C 375.160156 638.367188 374.566406 640.03125 373.890625 641.664062 C 373.210938 643.296875 372.457031 644.894531 371.625 646.457031 C 370.789062 648.015625 369.882812 649.53125 368.898438 651 C 367.917969 652.472656 366.863281 653.890625 365.742188 655.257812 C 364.621094 656.625 363.433594 657.933594 362.183594 659.183594 C 360.933594 660.433594 359.625 661.621094 358.257812 662.742188 C 356.890625 663.863281 355.472656 664.917969 354 665.898438 C 352.53125 666.882812 351.015625 667.789062 349.457031 668.625 C 347.894531 669.457031 346.296875 670.210938 344.664062 670.890625 C 343.03125 671.566406 341.367188 672.160156 339.675781 672.675781 C 337.984375 673.1875 336.269531 673.617188 334.535156 673.960938 C 332.800781 674.308594 331.054688 674.566406 329.292969 674.738281 C 327.53125 674.914062 325.769531 675 324 675 Z M 324 675 " fill-opacity="1" fill-rule="nonzero"/><path fill="#ffffff" d="M 783 378 L 752.164062 378 C 751.4375 375.128906 750.589844 372.296875 749.625 369.496094 C 748.660156 366.695312 747.582031 363.941406 746.386719 361.230469 C 745.195312 358.519531 743.894531 355.863281 742.480469 353.261719 C 741.070312 350.660156 739.554688 348.117188 737.929688 345.640625 C 736.308594 343.164062 734.589844 340.757812 732.765625 338.421875 C 730.945312 336.085938 729.03125 333.832031 727.027344 331.652344 C 725.019531 329.476562 722.925781 327.386719 720.746094 325.382812 C 718.566406 323.378906 716.304688 321.46875 713.96875 319.648438 C 711.628906 317.832031 709.222656 316.113281 706.742188 314.496094 C 704.261719 312.878906 701.71875 311.367188 699.113281 309.957031 C 696.511719 308.550781 693.851562 307.25 691.140625 306.0625 C 688.425781 304.875 685.671875 303.800781 682.871094 302.839844 C 680.070312 301.878906 677.234375 301.035156 674.363281 300.308594 C 671.492188 299.582031 668.597656 298.976562 665.675781 298.488281 C 662.753906 298 659.820312 297.636719 656.867188 297.390625 C 653.917969 297.148438 650.960938 297.023438 648 297.023438 C 645.039062 297.023438 642.082031 297.148438 639.132812 297.390625 C 636.179688 297.636719 633.246094 298 630.324219 298.488281 C 627.402344 298.976562 624.507812 299.582031 621.636719 300.308594 C 618.765625 301.035156 615.929688 301.878906 613.128906 302.839844 C 610.328125 303.800781 607.570312 304.875 604.859375 306.0625 C 602.148438 307.25 599.488281 308.550781 596.882812 309.957031 C 594.28125 311.367188 591.738281 312.878906 589.257812 314.496094 C 586.777344 316.113281 584.367188 317.832031 582.03125 319.648438 C 579.695312 321.46875 577.433594 323.378906 575.253906 325.382812 C 573.074219 327.386719 570.980469 329.476562 568.972656 331.652344 C 566.96875 333.832031 565.054688 336.085938 563.230469 338.421875 C 561.410156 340.757812 559.691406 343.164062 558.070312 345.640625 C 556.445312 348.117188 554.929688 350.660156 553.519531 353.261719 C 552.105469 355.863281 550.804688 358.519531 549.613281 361.230469 C 548.417969 363.941406 547.339844 366.695312 546.375 369.496094 C 545.410156 372.296875 544.5625 375.128906 543.832031 378 L 27 378 C 26.117188 378 25.234375 378.042969 24.355469 378.128906 C 23.472656 378.214844 22.601562 378.347656 21.734375 378.519531 C 20.867188 378.691406 20.007812 378.90625 19.164062 379.164062 C 18.316406 379.417969 17.484375 379.71875 16.667969 380.054688 C 15.851562 380.394531 15.050781 380.769531 14.273438 381.1875 C 13.492188 381.605469 12.734375 382.058594 12 382.550781 C 11.265625 383.042969 10.554688 383.566406 9.871094 384.128906 C 9.1875 384.691406 8.535156 385.28125 7.90625 385.90625 C 7.28125 386.535156 6.691406 387.1875 6.128906 387.871094 C 5.566406 388.554688 5.042969 389.265625 4.550781 390 C 4.058594 390.734375 3.605469 391.492188 3.1875 392.273438 C 2.769531 393.050781 2.394531 393.851562 2.054688 394.667969 C 1.71875 395.484375 1.417969 396.316406 1.164062 397.164062 C 0.90625 398.007812 0.691406 398.867188 0.519531 399.734375 C 0.347656 400.601562 0.214844 401.472656 0.128906 402.355469 C 0.0429688 403.234375 0 404.117188 0 405 C 0 405.882812 0.0429688 406.765625 0.128906 407.644531 C 0.214844 408.527344 0.347656 409.398438 0.519531 410.265625 C 0.691406 411.132812 0.90625 411.992188 1.164062 412.835938 C 1.417969 413.683594 1.71875 414.515625 2.054688 415.332031 C 2.394531 416.148438 2.769531 416.949219 3.1875 417.726562 C 3.605469 418.507812 4.058594 419.265625 4.550781 420 C 5.042969 420.734375 5.566406 421.445312 6.128906 422.128906 C 6.691406 422.8125 7.28125 423.464844 7.90625 424.09375 C 8.535156 424.71875 9.1875 425.308594 9.871094 425.871094 C 10.554688 426.433594 11.265625 426.957031 12 427.449219 C 12.734375 427.941406 13.492188 428.394531 14.273438 428.8125 C 15.050781 429.230469 15.851562 429.605469 16.667969 429.945312 C 17.484375 430.28125 18.316406 430.582031 19.164062 430.835938 C 20.007812 431.09375 20.867188 431.308594 21.734375 431.480469 C 22.601562 431.652344 23.472656 431.785156 24.355469 431.871094 C 25.234375 431.957031 26.117188 432 27 432 L 543.832031 432 C 544.5625 434.871094 545.410156 437.703125 546.375 440.503906 C 547.339844 443.304688 548.417969 446.058594 549.613281 448.769531 C 550.804688 451.480469 552.105469 454.136719 553.519531 456.738281 C 554.929688 459.339844 556.445312 461.882812 558.070312 464.359375 C 559.691406 466.835938 561.410156 469.242188 563.230469 471.578125 C 565.054688 473.914062 566.96875 476.167969 568.972656 478.347656 C 570.980469 480.523438 573.074219 482.613281 575.253906 484.617188 C 577.433594 486.621094 579.695312 488.53125 582.03125 490.351562 C 584.367188 492.167969 586.777344 493.886719 589.257812 495.503906 C 591.738281 497.121094 594.28125 498.632812 596.882812 500.042969 C 599.488281 501.449219 602.148438 502.75 604.859375 503.9375 C 607.570312 505.125 610.328125 506.199219 613.128906 507.160156 C 615.929688 508.121094 618.765625 508.964844 621.636719 509.691406 C 624.507812 510.417969 627.402344 511.023438 630.324219 511.511719 C 633.246094 512 636.179688 512.363281 639.132812 512.609375 C 642.082031 512.851562 645.039062 512.976562 648 512.976562 C 650.960938 512.976562 653.917969 512.851562 656.867188 512.609375 C 659.820312 512.363281 662.753906 512 665.675781 511.511719 C 668.597656 511.023438 671.492188 510.417969 674.363281 509.691406 C 677.234375 508.964844 680.070312 508.121094 682.871094 507.160156 C 685.671875 506.199219 688.425781 505.125 691.140625 503.9375 C 693.851562 502.75 696.511719 501.449219 699.117188 500.042969 C 701.71875 498.632812 704.261719 497.121094 706.742188 495.503906 C 709.222656 493.886719 711.628906 492.167969 713.96875 490.351562 C 716.304688 488.53125 718.566406 486.621094 720.746094 484.617188 C 722.925781 482.613281 725.019531 480.523438 727.027344 478.347656 C 729.03125 476.167969 730.945312 473.914062 732.765625 471.578125 C 734.589844 469.242188 736.308594 466.835938 737.929688 464.359375 C 739.554688 461.882812 741.070312 459.339844 742.480469 456.738281 C 743.894531 454.136719 745.195312 451.480469 746.386719 448.769531 C 747.582031 446.058594 748.660156 443.304688 749.625 440.503906 C 750.589844 437.703125 751.4375 434.871094 752.164062 432 L 783 432 C 783.882812 432 784.765625 431.957031 785.644531 431.871094 C 786.527344 431.785156 787.398438 431.652344 788.265625 431.480469 C 789.132812 431.308594 789.992188 431.09375 790.835938 430.835938 C 791.683594 430.582031 792.515625 430.28125 793.332031 429.945312 C 794.148438 429.605469 794.949219 429.230469 795.726562 428.8125 C 796.507812 428.394531 797.265625 427.941406 798 427.449219 C 798.734375 426.957031 799.445312 426.433594 800.128906 425.871094 C 800.8125 425.308594 801.464844 424.71875 802.09375 424.09375 C 802.71875 423.464844 803.308594 422.8125 803.871094 422.128906 C 804.433594 421.445312 804.957031 420.734375 805.449219 420 C 805.941406 419.265625 806.394531 418.507812 806.8125 417.726562 C 807.230469 416.949219 807.605469 416.148438 807.945312 415.332031 C 808.28125 414.515625 808.582031 413.683594 808.835938 412.835938 C 809.09375 411.992188 809.308594 411.132812 809.480469 410.265625 C 809.652344 409.398438 809.785156 408.527344 809.871094 407.644531 C 809.957031 406.765625 810 405.882812 810 405 C 810 404.117188 809.957031 403.234375 809.871094 402.355469 C 809.785156 401.472656 809.652344 400.601562 809.480469 399.734375 C 809.308594 398.867188 809.09375 398.007812 808.835938 397.164062 C 808.582031 396.316406 808.28125 395.484375 807.945312 394.667969 C 807.605469 393.851562 807.230469 393.050781 806.8125 392.273438 C 806.394531 391.492188 805.941406 390.734375 805.449219 390 C 804.957031 389.265625 804.433594 388.554688 803.871094 387.871094 C 803.308594 387.1875 802.71875 386.535156 802.09375 385.90625 C 801.464844 385.28125 800.8125 384.691406 800.128906 384.128906 C 799.445312 383.566406 798.734375 383.042969 798 382.550781 C 797.265625 382.058594 796.507812 381.605469 795.726562 381.1875 C 794.949219 380.769531 794.148438 380.394531 793.332031 380.054688 C 792.515625 379.71875 791.683594 379.417969 790.835938 379.164062 C 789.992188 378.90625 789.132812 378.691406 788.265625 378.519531 C 787.398438 378.347656 786.527344 378.214844 785.644531 378.128906 C 784.765625 378.042969 783.882812 378 783 378 Z M 648 459 C 646.230469 459 644.46875 458.914062 642.707031 458.738281 C 640.945312 458.566406 639.199219 458.308594 637.464844 457.960938 C 635.730469 457.617188 634.015625 457.1875 632.324219 456.675781 C 630.632812 456.160156 628.96875 455.566406 627.335938 454.890625 C 625.699219 454.210938 624.105469 453.457031 622.542969 452.625 C 620.984375 451.789062 619.46875 450.882812 618 449.898438 C 616.527344 448.917969 615.109375 447.863281 613.742188 446.742188 C 612.375 445.621094 611.066406 444.433594 609.816406 443.183594 C 608.566406 441.933594 607.378906 440.625 606.257812 439.257812 C 605.136719 437.890625 604.082031 436.472656 603.101562 435 C 602.117188 433.53125 601.210938 432.015625 600.375 430.457031 C 599.542969 428.894531 598.789062 427.296875 598.109375 425.664062 C 597.433594 424.03125 596.839844 422.367188 596.324219 420.675781 C 595.8125 418.984375 595.382812 417.269531 595.039062 415.535156 C 594.691406 413.800781 594.433594 412.054688 594.261719 410.292969 C 594.085938 408.53125 594 406.769531 594 405 C 594 403.230469 594.085938 401.46875 594.261719 399.707031 C 594.433594 397.945312 594.691406 396.199219 595.039062 394.464844 C 595.382812 392.730469 595.8125 391.015625 596.324219 389.324219 C 596.839844 387.632812 597.433594 385.96875 598.109375 384.335938 C 598.789062 382.699219 599.542969 381.105469 600.375 379.542969 C 601.210938 377.984375 602.117188 376.46875 603.101562 375 C 604.082031 373.527344 605.136719 372.109375 606.257812 370.742188 C 607.378906 369.375 608.566406 368.066406 609.816406 366.816406 C 611.066406 365.566406 612.375 364.378906 613.742188 363.257812 C 615.109375 362.136719 616.527344 361.082031 618 360.101562 C 619.46875 359.117188 620.984375 358.210938 622.542969 357.375 C 624.105469 356.542969 625.699219 355.789062 627.335938 355.109375 C 628.96875 354.433594 630.632812 353.839844 632.324219 353.324219 C 634.015625 352.8125 635.730469 352.382812 637.464844 352.039062 C 639.199219 351.691406 640.945312 351.433594 642.707031 351.261719 C 644.46875 351.085938 646.230469 351 648 351 C 649.769531 351 651.53125 351.085938 653.292969 351.261719 C 655.054688 351.433594 656.800781 351.691406 658.535156 352.039062 C 660.269531 352.382812 661.984375 352.8125 663.675781 353.324219 C 665.367188 353.839844 667.03125 354.433594 668.664062 355.109375 C 670.296875 355.789062 671.894531 356.542969 673.457031 357.375 C 675.015625 358.210938 676.53125 359.117188 678 360.101562 C 679.472656 361.082031 680.890625 362.136719 682.257812 363.257812 C 683.625 364.378906 684.933594 365.566406 686.183594 366.816406 C 687.433594 368.066406 688.621094 369.375 689.742188 370.742188 C 690.863281 372.109375 691.917969 373.527344 692.898438 375 C 693.882812 376.46875 694.789062 377.984375 695.625 379.542969 C 696.457031 381.105469 697.210938 382.699219 697.890625 384.335938 C 698.566406 385.96875 699.160156 387.632812 699.675781 389.324219 C 700.1875 391.015625 700.617188 392.730469 700.960938 394.464844 C 701.308594 396.199219 701.566406 397.945312 701.738281 399.707031 C 701.914062 401.46875 702 403.230469 702 405 C 702 406.769531 701.914062 408.53125 701.738281 410.292969 C 701.566406 412.054688 701.308594 413.800781 700.960938 415.535156 C 700.617188 417.269531 700.1875 418.984375 699.675781 420.675781 C 699.160156 422.367188 698.566406 424.03125 697.890625 425.664062 C 697.210938 427.296875 696.457031 428.894531 695.625 430.457031 C 694.789062 432.015625 693.882812 433.53125 692.898438 435 C 691.917969 436.472656 690.863281 437.890625 689.742188 439.257812 C 688.621094 440.625 687.433594 441.933594 686.183594 443.183594 C 684.933594 444.433594 683.625 445.621094 682.257812 446.742188 C 680.890625 447.863281 679.472656 448.917969 678 449.898438 C 676.53125 450.882812 675.015625 451.789062 673.457031 452.625 C 671.894531 453.457031 670.296875 454.210938 668.664062 454.890625 C 667.03125 455.566406 665.367188 456.160156 663.675781 456.675781 C 661.984375 457.1875 660.269531 457.617188 658.535156 457.960938 C 656.800781 458.308594 655.054688 458.566406 653.292969 458.738281 C 651.53125 458.914062 649.769531 459 648 459 Z M 648 459 " fill-opacity="1" fill-rule="nonzero"/></svg>